<svg xmlns="http://www.w3.org/2000/svg" className="h-5 w-5" fill="white" viewBox="0 0 24 24">
    <path d="M17.472 14.382c-.297-.149-1.758-.867-2.03-.967-.273-.099-.472-.148-.67.15-.198.297-.767.967-.94 1.164-.173.198-.347.223-.644.074-.297-.148-1.255-.463-2.39-1.475-.883-.788-1.48-1.761-1.653-2.059-.173-.297-.018-.458.13-.606.134-.133.297-.347.446-.52.149-.174.198-.298.297-.497.099-.198.05-.371-.025-.52-.074-.148-.67-1.617-.918-2.21-.242-.579-.487-.5-.67-.51-.173-.009-.371-.011-.57-.011-.198 0-.52.074-.793.371-.273.297-1.04 1.016-1.04 2.479 0 1.462 1.065 2.875 1.213 3.074.149.198 2.095 3.2 5.077 4.487.709.306 1.262.489 1.694.626.712.227 1.36.195 1.872.118.571-.085 1.758-.718 2.006-1.413.248-.696.248-1.291.173-1.414-.074-.124-.272-.198-.57-.347z" />
    <path d="M20.52 3.48A11.94 11.94 0 0012 0C5.372 0 0 5.373 0 12c0 2.12.556 4.15 1.61 5.98L0 24l6.32-1.66A11.94 11.94 0 0012 24c6.627 0 12-5.373 12-12 0-3.203-1.254-6.21-3.48-8.52zM12 21.54c-1.83 0-3.63-.49-5.22-1.42l-.373-.222-3.75.987.997-3.65-.242-.38A9.46 9.46 0 012.46 12c0-5.245 4.255-9.5 9.5-9.5S21.46 6.755 21.46 12 17.205 21.54 12 21.54z" />
</svg>